<svg width="178" height="22" viewBox="0 0 178 22" fill="none" xmlns="http://www.w3.org/2000/svg">
    <mask id="6idlmyryma" style="mask-type:alpha" maskUnits="userSpaceOnUse" x="31" y="0" width="112" height="21">
        <path d="M31.878 6.547V.721c0-.397.343-.721.761-.721h2.994c.418 0 .76.324.76.721v1.726c.02.362.332.648.717.648h10.22c3.188 0 4.631 3.331 3.47 5.695-.343.69-5.773 11.663-5.773 11.663-.134.27-.332.386-.693.386h-3.672c-.947 0-1.136-.462-.815-1.108l5.78-11.679c.244-.486-.25-.783-.734-.783H32.637c-.416 0-.759-.324-.759-.722zm29.86 14.292H49.221c-.911 0-1.088-.468-.782-1.123l1.268-2.704c.135-.29.29-.44.745-.44h6.917l-2.91-12.888c-.1-.446.262-.842.72-.842h3.288c.322 0 .69.212.755.5l2.9 13.021c.129.568.316.617.57.031.069-.16 5.56-12.907 5.664-13.155a.655.655 0 0 1 .627-.397h3.772c.497 0 .824.592.578 1.155-.222.501-5.572 12.512-5.722 12.853-1.483 3.292-3.09 3.989-5.873 3.989zm40.659-14.292V.721c0-.397.339-.721.76-.721h2.993c.419 0 .761.324.761.721v1.726c.018.362.331.648.717.648h10.221c3.185 0 4.631 3.331 3.471 5.695-.344.69-5.777 11.662-5.777 11.662-.133.27-.331.387-.694.387h-3.669c-.948 0-1.136-.462-.816-1.108 0 0 5.679-11.476 5.781-11.679.242-.486-.249-.783-.732-.783h-12.256c-.421 0-.76-.324-.76-.722zm39.008-.743c-.488 1.036-5.186 11.064-5.186 11.064s1.652 2.889 1.776 3.11c.285.495.232.861-.546.861h-3.345c-.525 0-.839-.197-1.043-.553l-5.007-8.763-3.094 6.545c-.36.758-1.086 1.693-2.027 2.204-.897.49-1.716.567-3.098.567h-.164c-1.003 0-.916-.519-.748-.874l6.321-13.36s-1.605-2.808-1.712-2.993c-.307-.537 0-.77.515-.77h3.196c.653 0 1.128.294 1.419.801l4.727 8.277s3.983-8.493 4.075-8.694c.128-.266.369-.384.715-.384h2.736c.953 0 1.633.532.49 2.962z" fill="#fff"/>
    </mask>
    <g mask="url(#6idlmyryma)">
        <path d="M31.878 6.547V.721c0-.397.343-.721.761-.721h2.995c.417 0 .76.324.76.721v1.726c.02.362.331.648.716.648h10.22c3.188 0 4.632 3.331 3.47 5.695-.343.69-5.772 11.663-5.772 11.663-.135.27-.333.386-.694.386h-3.672c-.947 0-1.136-.462-.814-1.108 0 0 5.678-11.476 5.78-11.679.243-.486-.252-.783-.735-.783H32.637c-.416 0-.759-.324-.759-.722zm29.86 14.292H49.222c-.91 0-1.088-.468-.782-1.123l1.268-2.704c.135-.29.29-.44.745-.44h6.917l-2.91-12.888c-.1-.446.262-.842.72-.842h3.288c.322 0 .691.212.755.5l2.9 13.021c.129.568.316.617.57.031.069-.16 5.56-12.907 5.664-13.155a.655.655 0 0 1 .628-.397h3.772c.496 0 .824.592.577 1.155-.221.501-5.572 12.512-5.722 12.853-1.483 3.292-3.09 3.989-5.873 3.989zm40.659-14.292V.721c0-.397.339-.721.761-.721h2.992c.42 0 .761.324.761.721v1.726c.018.362.331.648.718.648h10.22c3.185 0 4.632 3.331 3.471 5.695-.344.69-5.777 11.662-5.777 11.662-.133.27-.33.387-.694.387h-3.669c-.948 0-1.136-.462-.816-1.108 0 0 5.679-11.476 5.781-11.679.242-.486-.249-.783-.731-.783h-12.256c-.422 0-.761-.324-.761-.722zm39.008-.743c-.488 1.036-5.185 11.064-5.185 11.064s1.651 2.889 1.776 3.11c.284.495.231.861-.547.861h-3.345c-.525 0-.839-.197-1.043-.553l-5.007-8.763-3.093 6.545c-.361.758-1.087 1.693-2.028 2.204-.896.49-1.716.567-3.098.567h-.163c-1.004 0-.916-.519-.749-.874l6.322-13.36s-1.605-2.808-1.712-2.993c-.308-.537 0-.77.514-.77h3.196c.653 0 1.128.294 1.419.801l4.727 8.277s3.983-8.493 4.075-8.694c.128-.266.369-.384.715-.384h2.736c.953 0 1.633.532.49 2.962z" fill="#1B358F"/>
    </g>
    <path d="M83.422 7.485c0-.382-.327-.693-.728-.693h-2.096c-.448 0-.67.127-.783.362-.066.13-3.185 6.427-3.185 6.427h6.064c.387 0 .702-.286.727-.647V7.485zm4.485 12.593c0 .42-.36.761-.803.761h-3.037c-.442 0-.802-.342-.802-.761V17.57h-8.612l-1.063 2.142c-.438.885-.778 1.127-1.49 1.127h-2.54c-.96 0-1.153-.474-.826-1.131L75.75 5.423c.795-1.61 2.394-2.581 3.959-2.581l7.395.001c.443 0 .803.342.803.76v16.475zM0 20.107V7.544c0-2.558 2.138-4.64 4.8-4.702h13.557c.426 0 .768.327.768.735v3.019a.497.497 0 0 1-.508.483H5.583c-.4 0-.723.31-.723.693v1.396c0 .375.308.68.699.69h11.829c.398 0 .722.31.722.691v2.575c0 .384-.324.69-.722.69H5.583c-.4 0-.723.313-.723.692v1.379c0 .379.322.687.723.687l13.344.003c.347 0 .482.117.334.417-.608 1.208-1.035 2.06-1.511 3.013-.367.734-.688.834-1.018.834H.768c-.427 0-.768-.328-.768-.732zm21.252 0V3.577c0-.408.352-.735.779-.735h2.952c.43 0 .78.327.78.735v12.341c.018.364.336.654.733.654h12.708c.356 0 .492.12.342.42l-1.532 3.013c-.377.734-.7.834-1.032.834H22.031c-.43 0-.779-.328-.779-.732zm69.553 0V3.577c0-.408.346-.735.778-.735h2.951c.431 0 .78.327.78.735v12.341c.018.364.341.654.734.654h12.712c.353 0 .489.12.339.42l-1.533 3.013c-.375.734-.7.834-1.034.834h-14.95c-.43 0-.777-.328-.777-.732z" fill="#1B358F"/>
    <mask id="7k81ij2h9b" style="mask-type:alpha" maskUnits="userSpaceOnUse" x="140" y="2" width="38" height="20">
        <path d="M142.805 16.549h27.731c.504 0 .722.447.487 1l-1.169 2.737c-.233.552-.829.999-1.336.999h-27.732c-.501 0-.721-.447-.488-1l1.17-2.737c.234-.552.832-1 1.337-1zm6.76-14.209h27.734c.503 0 .72.443.487.995l-1.167 2.744c-.236.553-.835.997-1.34.997h-27.732c-.502 0-.721-.444-.484-.997l1.166-2.744c.234-.552.83-.995 1.336-.995zm10.064 6.021.511 1.378h1.924c.409 0 .5.324.11.784l-1.212 1.427.496 1.34c.111.302.146.626-.556.626h-1.608l-1.214 1.427c-.302.353-.405.36-.567-.077l-.502-1.35h-1.954c-.413 0-.502-.328-.114-.787l1.236-1.456-.486-1.313c-.112-.297-.144-.621.555-.621h1.576l1.236-1.456c.302-.354.404-.362.569.078z" fill="#fff"/>
    </mask>
    <g mask="url(#7k81ij2h9b)">
        <path d="M177.999 2.34h-37.794v19.892h37.794V2.34z" fill="#1B358F"/>
    </g>
</svg>
